<svg width="86" height="86" viewBox="0 0 86 86" xmlns="http://www.w3.org/2000/svg"><title>3CCA91DD-3B60-4BCF-AF05-1385F490BD66</title><path d="M82.7 36.442c-.088 2.104-.295 3.567-.765 5.635a33.509 33.509 0 0 1-1.71 5.341l-.058.133c-1.665 3.854-3.917 7.11-6.793 10-1.91 1.9-3.676 3.296-5.95 4.69-2.242 1.374-4.256 2.286-6.64 3.071a33.837 33.837 0 0 1-3.61.958 26.367 26.367 0 0 1-3.425.507 33.546 33.546 0 0 1-6.822-.09l-.387-.048c-5.069-.695-9.51-2.417-13.697-5.23-4.145-2.786-7.652-6.674-10.11-11.133-1.24-2.248-2.03-4.22-2.738-6.75a33.282 33.282 0 0 1-.862-4.084l-.034-.247a33.496 33.496 0 0 1-.03-8.24l.036-.28a32.88 32.88 0 0 1 .222-1.377 33.402 33.402 0 0 1 1.76-6.18c.055-.142.112-.28.168-.42l.115-.28c-.054.13-.045.111.026-.055 2.09-4.834 5.111-8.783 9.137-12.134 1.75-1.455 4.038-2.916 6.28-4.022 1.2-.592 1.962-.906 3.256-1.364a33.439 33.439 0 0 1 3.593-1.039c4.584-1.064 9.655-1.042 14.24 0 1.216.276 2.415.63 3.592 1.04 1.297.452 2.054.777 3.256 1.363a33.115 33.115 0 0 1 3.326 1.875 29.964 29.964 0 0 1 2.954 2.147c4.045 3.336 7.028 7.315 9.137 12.134l.048.11a73.827 73.827 0 0 1 .206.505c.112.278.217.56.322.842a33.402 33.402 0 0 1 1.643 6.358c.023.147.044.295.065.442l.01.06a34.385 34.385 0 0 1 .199 2.051 33.78 33.78 0 0 1 .04 3.711m2.87-5.043c-1.107-10.636-7.087-20.257-16.097-26.013-8.675-5.543-19.724-6.864-29.498-3.7-10.197 3.3-18.372 11.302-22.073 21.33-3.562 9.653-2.492 20.715 2.67 29.585a34.215 34.215 0 0 0 4.403 5.95l-8.418 8.416a15123.08 15123.08 0 0 1-5.664 5.664l-8.307-8.308c-1.38-1.38-3.52.76-2.14 2.14 2.77 2.77 5.538 5.54 8.308 8.308L2.96 80.564l-2.13 2.13c-1.38 1.381.76 3.521 2.141 2.14l7.922-7.923.081.081c2.775 2.774 5.55 5.548 8.323 8.323 1.381 1.38 3.521-.759 2.14-2.14l-8.404-8.404L25.655 62.15l1.463-1.463c5.157 4.718 11.693 7.903 18.67 8.88 10.442 1.462 21.054-1.83 28.807-8.99.313-.289.618-.586.92-.886 7.365-7.4 11.138-17.893 10.055-28.29" fill="#4C91E2" fill-rule="evenodd"/></svg>