<svg width="70" height="71" viewBox="0 0 70 71" xmlns="http://www.w3.org/2000/svg"><title>E881EA87-6DE4-464B-97F1-E8B6610A7F5C</title><path d="M55.349.296a.815.815 0 0 0 0 1.632h11.853L52.856 16.286c-3.7-3.822-8.875-6.197-14.6-6.197-3.211 0-6.251.76-8.954 2.09a20.215 20.215 0 0 0-8.953-2.09C9.12 10.089 0 19.233 0 30.49c0 10.984 8.685 19.946 19.535 20.377v9.002h-8.14a.815.815 0 0 0 0 1.632h8.14v8.161a.815.815 0 1 0 1.628 0v-8.16h8.14a.815.815 0 0 0 0-1.633h-8.14v-9.002a20.207 20.207 0 0 0 8.14-2.066 20.215 20.215 0 0 0 8.953 2.091c11.229 0 20.349-9.144 20.349-20.402A20.37 20.37 0 0 0 53.95 17.51L68.372 3.075l-.025 11.91h.025a.815.815 0 1 0 1.628 0h-.025L70 1.112a.815.815 0 0 0-.814-.816H55.349zm-35 11.425c2.54 0 4.966.512 7.173 1.428a20.408 20.408 0 0 0-9.615 17.342c0 7.314 3.839 13.74 9.615 17.342a18.685 18.685 0 0 1-7.173 1.428c-10.35 0-18.721-8.394-18.721-18.77s8.372-18.77 18.72-18.77zm17.907 0c10.349 0 18.72 8.394 18.72 18.77s-8.371 18.77-18.72 18.77c-2.54 0-4.966-.512-7.173-1.428a20.408 20.408 0 0 0 9.615-17.342c0-7.314-3.839-13.74-9.615-17.342a18.683 18.683 0 0 1 7.173-1.428zm-8.954 2.295c5.82 3.181 9.768 9.354 9.768 16.475 0 7.121-3.948 13.294-9.768 16.475-5.819-3.181-9.767-9.354-9.767-16.475 0-7.121 3.948-13.294 9.767-16.475z" fill-rule="nonzero" fill="#4A90E2"/></svg>